<svg xmlns="http://www.w3.org/2000/svg" width="357.58" height="409.6" xmlns:xlink="http://www.w3.org/1999/xlink">
  <defs>
    <path id="a" d="M0 0h357.58v409.6H0z"/>
  </defs>
  <clipPath id="b">
    <use xlink:href="#a" overflow="visible"/>
  </clipPath>
  <path d="M349.42 39.16h-85.88c-4.5 0-8.16 3.65-8.16 8.15v150.2H199.4V8.2c0-4.5-3.66-8.16-8.16-8.16h-49.1C137.64.04 134 3.7 134 8.2v114.5h-18.03V77.5c0-4.5-3.66-8.14-8.16-8.14S99.7 73 99.7 77.5v45.18h-8.83c-4.5 0-8.16 3.66-8.16 8.16v39.7H40.9v-30.2c0-4.5-3.66-8.16-8.16-8.16s-8.16 3.66-8.16 8.16v30.2H8.16c-4.5 0-8.16 3.65-8.16 8.16v222.74c0 4.5 3.65 8.16 8.16 8.16h341.26c4.5 0 8.16-3.65 8.16-8.16V47.3c0-4.5-3.65-8.14-8.16-8.14M82.66 393.28H16.32V186.86h66.34v206.42zm100.4 0H99V139h84.1v254.28zm0-270.6H150.3V16.32h32.78v106.36zm72.3 270.6H199.4V213.83h55.97v179.45zm85.9 0H271.7V55.48h69.56v337.8z" clip-path="url(#b)"/>
  <path d="M123 159.23c-4.5 0-8.15 3.65-8.15 8.16v10.8c0 4.5 3.65 8.1 8.16 8.1 4.6 0 8.2-3.7 8.2-8.2v-10.8c0-4.6-3.6-8.2-8.1-8.2m34.8 0c-4.5 0-8.1 3.6-8.1 8.1V178c0 4.5 3.7 8.17 8.2 8.17 4.5 0 8.2-3.65 8.2-8.16v-10.8c0-4.5-3.6-8.1-8.1-8.1m8.7-74.8c-4.5 0-8.2 3.7-8.2 8.2v10.8c0 4.5 3.7 8.2 8.2 8.2 4.5 0 8.2-3.7 8.2-8.2V92.5c0-4.5-3.7-8.15-8.2-8.15m0-42.65c-4.5 0-8.2 3.65-8.2 8.16V60.7c0 4.5 3.7 8.15 8.2 8.15 4.5 0 8.2-3.65 8.2-8.16V49.9c0-4.5-3.7-8.18-8.2-8.18m-43.5 165c-4.5 0-8.16 3.66-8.16 8.17v10.8c0 4.5 3.64 8.1 8.15 8.1 4.56 0 8.2-3.7 8.2-8.2v-10.8c0-4.6-3.64-8.2-8.15-8.2m34.8 0c-4.5 0-8.15 3.6-8.15 8.1v10.8c0 4.5 3.64 8.1 8.15 8.1 4.5 0 8.15-3.7 8.15-8.2v-10.8c0-4.5-3.64-8.2-8.14-8.2m-35 44.32c-4.5 0-8.1 3.64-8.1 8.15v10.83c0 4.5 3.66 8.1 8.17 8.1 4.6 0 8.2-3.7 8.2-8.2V259c0-4.5-3.6-8.15-8.1-8.15m34.8.02c-4.5 0-8.1 3.64-8.1 8.15v10.83c0 4.5 3.7 8.14 8.2 8.14 4.5 0 8.14-3.7 8.14-8.2V259c0-4.5-3.65-8.16-8.15-8.16m-35 47.56c-4.5 0-8.2 3.65-8.2 8.16v10.83c0 4.5 3.63 8.1 8.14 8.1 4.6 0 8.2-3.7 8.2-8.2v-10.8c0-4.5-3.6-8.2-8.1-8.2m34.8 0c-4.5 0-8.1 3.6-8.1 8.1v10.8c0 4.5 3.65 8.1 8.2 8.1 4.5 0 8.1-3.7 8.1-8.2v-10.8c0-4.5-3.64-8.2-8.14-8.2m-35 47.6c-4.5 0-8.15 3.65-8.15 8.16v10.84c0 4.5 3.66 8.18 8.17 8.18 4.6 0 8.2-3.66 8.2-8.16V354c0-4.5-3.6-8.15-8.1-8.15m34.8 0c-4.5 0-8.1 3.65-8.1 8.16v10.9c0 4.5 3.67 8.2 8.2 8.2 4.5 0 8.13-3.6 8.13-8.1v-11c0-4.5-3.67-8.13-8.17-8.13M292.8 159.2c-4.5 0-8.2 3.66-8.2 8.17v10.8c0 4.5 3.64 8.1 8.15 8.1 4.5 0 8.1-3.7 8.1-8.2v-10.8c0-4.6-3.66-8.2-8.16-8.2m30.4 0c-4.5 0-8.2 3.6-8.2 8.1V178c0 4.5 3.6 8.17 8.1 8.17s8.2-3.65 8.2-8.16v-10.8c0-4.5-3.7-8.1-8.2-8.1m-30.5 47.5c-4.5 0-8.16 3.7-8.16 8.2v10.8c0 4.5 3.6 8.2 8.1 8.2s8.17-3.7 8.17-8.2v-10.8c0-4.5-3.7-8.1-8.2-8.1m30.47 0c-4.5 0-8.2 3.7-8.2 8.2v10.8c0 4.5 3.64 8.18 8.15 8.18 4.5 0 8.2-3.62 8.2-8.13v-10.8c0-4.5-3.7-8.2-8.2-8.2m-30.4 44.15c-4.5 0-8.16 3.64-8.16 8.15v10.84c0 4.5 3.62 8.1 8.13 8.1 4.5 0 8.2-3.6 8.2-8.14V259c0-4.5-3.66-8.12-8.16-8.12m30.42.05c-4.5 0-8.17 3.6-8.17 8.12v10.9c0 4.5 3.64 8.1 8.15 8.1 4.5 0 8.13-3.64 8.13-8.15V259c0-4.5-3.7-8.16-8.2-8.16m-30.4-182.3c-4.5 0-8.17 3.64-8.17 8.15v10.8c0 4.5 3.6 8.1 8.1 8.1s8.17-3.7 8.17-8.2V76.7c0-4.5-3.65-8.15-8.15-8.15m30.44 0c-4.5 0-8.1 3.65-8.1 8.16v10.9c0 4.5 3.66 8.2 8.17 8.2 4.5 0 8.14-3.6 8.14-8.1v-11c0-4.5-3.7-8.1-8.2-8.1m-30.44 44.2c-4.5 0-8.15 3.7-8.15 8.2v10.9c0 4.6 3.67 8.2 8.18 8.2 4.5 0 8.2-3.6 8.2-8.1v-11c0-4.5-3.65-8.1-8.15-8.1m30.46 0c-4.5 0-8.1 3.64-8.1 8.15v10.83c0 4.6 3.7 8.2 8.2 8.2 4.5 0 8.16-3.6 8.16-8.1V121c0-4.5-3.7-8.17-8.2-8.17m-30.5 185.6c-4.5 0-8.1 3.67-8.1 8.18v10.9c0 4.5 3.63 8.1 8.14 8.1 4.5 0 8.2-3.7 8.2-8.2v-10.8c0-4.5-3.6-8.2-8.1-8.2m30.43.1c-4.5 0-8.13 3.7-8.13 8.2v10.8c0 4.5 3.65 8.2 8.16 8.2 4.5 0 8.1-3.7 8.1-8.2v-10.8c0-4.5-3.7-8.2-8.2-8.2M292.5 346c-4.5 0-8.2 3.66-8.2 8.17V365c0 4.5 3.66 8.1 8.17 8.1 4.5 0 8.17-3.6 8.17-8.1v-11c0-4.5-3.66-8.16-8.16-8.16m30.46 0c-4.5 0-8.15 3.62-8.15 8.13v10.83c0 4.5 3.64 8.1 8.15 8.1 4.5 0 8.18-3.7 8.18-8.2V354c0-4.5-3.7-8.16-8.2-8.16M64.7 202.7H35.1c-4.5 0-8.13 3.65-8.13 8.16 0 4.5 3.6 8.1 8.1 8.1h29.6c4.5 0 8.14-3.65 8.14-8.16 0-4.52-3.6-8.17-8.1-8.17m0 31.63H35.1c-4.5 0-8.15 3.66-8.15 8.17 0 4.5 3.66 8.15 8.16 8.15h29.6c4.5 0 8.2-3.65 8.2-8.16 0-4.5-3.7-8.17-8.2-8.17m0 32.6H35.1c-4.5 0-8.15 3.67-8.15 8.17s3.66 8.16 8.16 8.16h29.6c4.5 0 8.2-3.68 8.2-8.2 0-4.5-3.6-8.15-8.1-8.15m0 31.63H35.1c-4.5 0-8.14 3.64-8.14 8.14s3.66 8.16 8.16 8.16h29.6c4.5 0 8.15-3.66 8.15-8.16s-3.67-8.16-8.17-8.16m0 32.62H35.1c-4.5 0-8.15 3.65-8.15 8.15s3.66 8.2 8.16 8.2h29.6c4.5 0 8.2-3.6 8.2-8.1s-3.6-8.1-8.1-8.1m0 31.6H35.1c-4.5 0-8.16 3.7-8.16 8.2 0 4.5 3.66 8.2 8.16 8.2h29.6c4.5 0 8.15-3.6 8.15-8.1 0-4.52-3.67-8.2-8.17-8.2M237 225.4h-20.9c-4.5 0-8.15 3.63-8.15 8.13 0 4.6 3.65 8.2 8.16 8.2H237c4.5 0 8.15-3.6 8.15-8.1s-3.65-8.15-8.16-8.15m0 38.26h-20.9c-4.5 0-8.2 3.65-8.2 8.16s3.6 8.18 8.1 8.18h21c4.5 0 8.1-3.66 8.1-8.16s-3.7-8.15-8.2-8.15m0 39.16H216c-4.5 0-8.2 3.64-8.2 8.15 0 4.5 3.6 8.16 8.1 8.16h21c4.5 0 8.16-3.62 8.16-8.13 0-4.5-3.65-8.2-8.16-8.2m0 40.1H216c-4.5 0-8.2 3.7-8.2 8.2 0 4.5 3.6 8.2 8.1 8.2h21c4.5 0 8.16-3.6 8.16-8.1s-3.66-8.2-8.16-8.2m-129.1-308c-4.5 0-8.15 3.65-8.15 8.16v9.78c0 4.5 3.65 8.16 8.16 8.16 4.5 0 8.2-3.7 8.2-8.2v-9.8c0-4.5-3.6-8.2-8.1-8.2" clip-path="url(#b)"/>
</svg>
