<svg xmlns="http://www.w3.org/2000/svg" width="382.8" height="410.88" xmlns:xlink="http://www.w3.org/1999/xlink">
  <path d="M286.72 252.9c0-3.76-3.06-6.82-6.83-6.82h-41c-3.8 0-6.9 3.06-6.9 6.82 0 3.77 3 6.83 6.8 6.83h40.9c3.74 0 6.8-3.06 6.8-6.83M259.4 75.4V41.3c0-3.77-3.04-6.83-6.8-6.83-3.78 0-6.84 3.06-6.84 6.83v34.1c0 18.83 15.3 34.15 34.13 34.15h61.4v129.7c0 3.77 3 6.83 6.8 6.83s6.8-3.06 6.8-6.83V102.72c0-3.77-3.1-6.83-6.9-6.83h-68.2c-11.3 0-20.5-9.2-20.5-20.5m20.5 88.7h-54.6c-3.8 0-6.88 3-6.88 6.8 0 3.7 3.06 6.8 6.83 6.8h54.6c3.8 0 6.87-3.1 6.87-6.8 0-3.8-3.06-6.9-6.83-6.9m-75.1 6.9c0-3.8-3.07-6.9-6.84-6.9H157c-3.75 0-6.8 3.06-6.8 6.83 0 3.7 3.05 6.8 6.8 6.8h40.97c3.77 0 6.83-3.1 6.83-6.8M157 205.1c-3.75 0-6.8 3.06-6.8 6.82 0 3.77 3.05 6.83 6.8 6.83h13.67c3.76 0 6.82-3.06 6.82-6.83 0-3.76-3.1-6.82-6.9-6.82H157zm0-68.27h68.28c3.77 0 6.82-3.05 6.82-6.82 0-3.7-3.05-6.8-6.82-6.8H157c-3.75 0-6.8 3.1-6.8 6.9s3.05 6.9 6.8 6.9m40.97 81.9h68.27c3.77 0 6.83-3.03 6.83-6.8 0-3.8-3.06-6.82-6.83-6.82h-68.27c-3.77 0-6.82 3.06-6.82 6.83 0 3.76 3.05 6.8 6.82 6.8m40.96 68.27c-3.77 0-6.82 3.04-6.82 6.8 0 3.75 3.1 6.8 6.9 6.8h13.7c3.8 0 6.8-3.1 6.8-6.84 0-3.77-3-6.83-6.8-6.83H239zm-27.3-40.98H157c-3.75 0-6.8 3.02-6.8 6.8 0 3.75 3.05 6.8 6.8 6.8h54.63c3.77 0 6.82-3.04 6.82-6.8 0-3.75-3.05-6.8-6.82-6.8"/>
  <path d="M211.63 287.04H157c-3.75 0-6.8 3.06-6.8 6.83 0 3.76 3.05 6.82 6.8 6.82h54.63c3.77 0 6.82-3.1 6.82-6.9s-3.05-6.9-6.82-6.9m162.53-5.5l-13.66-13.6c-10.42-10.5-26.4-10.5-36.9 0l-89.5 89.4c-1.25 1.27-2 3-2 4.82V403c0 3.72 3.1 6.8 6.85 6.8h40.96c1.8 0 3.5-.75 4.8-2l89.5-89.47c10.9-10.86 10.9-26.06 0-36.94m-59.4 14.5l10.8 10.8-59.3 59.3-10.8-10.8 59.4-59.3zm-69 100.3v-31.3l31.3 31.3h-31.3zm41-9.7L276 375.7l59.3-59.3 10.8 10.83-59.3 59.3zm77.8-77.8l-8.8 8.8-31.3-31.3 8.85-8.86c5.4-5.38 12.23-5.4 17.64 0L364.63 291c5.54 5.54 5.54 12.14 0 17.66"/>
  <path d="M211.63 396.26H34.13c-11.3 0-20.48-9.18-20.48-20.48V34.45c0-11.3 9.2-20.48 20.48-20.48h215.63l66.27 66.27c2.67 2.67 6.98 2.67 9.65 0s2.67-6.98 0-9.66L257.4 2.32c-1.26-1.28-3-2-4.8-2H34.12C15.3.32 0 15.62 0 34.45V375.8c0 18.8 15.3 34.12 34.13 34.12h177.5c3.77 0 6.82-3.06 6.82-6.83s-3.05-6.9-6.82-6.9"/>
  <path d="M211.63 328H157c-3.75 0-6.8 3.06-6.8 6.83 0 3.76 3.05 6.82 6.8 6.82h54.63c3.77 0 6.82-3.06 6.82-6.82 0-3.77-3.05-6.83-6.82-6.83m-88.75-197.97c0-3.77-3.06-6.83-6.82-6.83H75.1c-3.78 0-6.83 3.06-6.83 6.83V171c0 3.75 3.05 6.8 6.82 6.8H116c3.77 0 6.83-3.05 6.83-6.8v-40.97zm-13.65 34.13h-27.3v-27.3h27.3v27.3zM75.1 341.66h40.95c3.77 0 6.83-3.07 6.83-6.83v-40.96c0-3.77-3.06-6.83-6.83-6.83H75.1c-3.78 0-6.83 3.06-6.83 6.83v40.96c0 3.76 3.05 6.82 6.82 6.82m6.8-40.96h27.3V328H81.9v-27.3zm2-43c1.3 1.3 3 2 4.8 2 .2 0 .4 0 .6-.1 2-.2 3.8-1.3 5-3l27.3-41c2.1-3.2 1.2-7.4-1.9-9.5-3.2-2.1-7.4-1.3-9.5 1.9l-22.7 34-7.8-7.8c-2.7-2.66-7-2.66-9.68 0-2.66 2.7-2.66 7 0 9.67l13.7 13.7z"/>
</svg>
