<svg xmlns="http://www.w3.org/2000/svg" width="402.96" height="410.88" xmlns:xlink="http://www.w3.org/1999/xlink">
  <defs>
    <path id="a" d="M0 0h402.96v410.88H0z"/>
  </defs>
  <clipPath id="b">
    <use xlink:href="#a" overflow="visible"/>
  </clipPath>
  <path d="M140.04 198.14c-15.5-17.5-36.17-27.15-58.22-27.15s-42.7 9.6-58.2 27.1c-31.5 35.5-31.5 93.4 0 129l58.2 65.7 58.22-65.8c31.5-35.6 31.5-93.48 0-129m-10.22 120l-48 54.2L33.84 318c-27.07-30.6-27.07-80.35 0-110.9 12.87-14.56 29.9-22.57 47.98-22.57s35.13 8 48 22.55c27.06 30.5 27.06 80.3 0 110.9" clip-path="url(#b)"/>
  <defs>
    <path id="c" d="M0 0h402.96v410.88H0z"/>
  </defs>
  <clipPath id="d">
    <use xlink:href="#c" overflow="visible"/>
  </clipPath>
  <path d="M329.32 167.62l44.13-49.74c23.74-26.76 23.74-70.3 0-97.04C361.7 7.6 346.02.32 329.3.32c-16.7 0-32.37 7.3-44.12 20.52-23.74 26.75-23.74 70.28 0 97.04l44.14 49.74zM295.4 29.9c9.1-10.28 21.15-15.93 33.9-15.93 12.78 0 24.82 5.65 33.93 15.93 19.3 21.76 19.3 57.16 0 78.92l-33.9 38.23-33.93-38.23c-19.3-21.76-19.3-57.16 0-78.92m60.25 342.6c-3.68-.84-7.33 1.47-8.16 5.15-.8 3.48-2.4 6.68-4.6 9.5-2.4 2.97-1.9 7.26 1.1 9.6 1.2.97 2.7 1.45 4.2 1.45 2 0 4-.9 5.4-2.6 3.4-4.38 5.9-9.54 7.1-14.94.8-3.7-1.5-7.34-5.2-8.17M214.9 211.9c-2.95 0-5.82-.55-8.54-1.6-3.5-1.3-7.46.44-8.8 3.96-1.35 3.53.42 7.48 3.93 8.83 4.3 1.7 8.8 2.5 13.4 2.5h2.5c3.7 0 6.8-3.07 6.8-6.8s-3.08-6.87-6.8-6.87h-2.48zm-16.2-43.2c1.24 0 2.48-.32 3.6-1 3.03-1.9 6.38-3 9.93-3.4 3.75-.4 6.45-3.8 6.04-7.5-.4-3.73-3.8-6.4-7.6-6.03-5.6.63-10.88 2.45-15.67 5.43-3.2 2-4.17 6.2-2.2 9.4 1.3 2.1 3.54 3.2 5.8 3.2m-78.9 227.5h-13.6c-3.76 0-6.82 3.06-6.82 6.83s3.07 6.8 6.84 6.8h13.65c3.8 0 6.82-3.04 6.82-6.82s-3.1-6.8-6.9-6.8m122.5-122.9h-1.74c-3.77.12-6.7 3.3-6.54 7.1.15 3.64 3.18 6.5 6.82 6.5h13.66c3.78 0 6.83-3.05 6.83-6.8 0-3.8-3.05-6.84-6.82-6.84h-12.2zm-3.4-109.28h13.65c3.7 0 6.8-3.04 6.8-6.82 0-3.77-3.1-6.82-6.87-6.82h-13.6c-3.78 0-6.83 3.06-6.83 6.83 0 3.8 3.05 6.9 6.83 6.9m83.9 109.28c-3.72 0-6.8 3.04-6.8 6.8 0 3.77 3.08 6.8 6.85 6.8h13.66c3.8 0 6.8-3.03 6.8-6.8 0-3.8-3.1-6.83-6.9-6.83h-13.7zm24.4-54.63c0-3.77-3-6.83-6.8-6.83h-13.7c-3.73 0-6.8 3.07-6.8 6.84s3.07 6.84 6.8 6.84h13.7c3.77 0 6.8-3.04 6.8-6.82M281.7 287h13.66c3.76 0 6.8-3.04 6.8-6.82 0-3.74-3.04-6.8-6.8-6.8H281.7c-3.76 0-6.8 3.06-6.8 6.8 0 3.8 3.06 6.86 6.82 6.86m11.7-122.9c3.8 0 6.84-3.04 6.84-6.82 0-3.77-3.05-6.82-6.83-6.82H279.8c-3.78 0-6.83 3.07-6.83 6.84 0 3.78 3.05 6.83 6.83 6.83h13.65zm-48.74 47.8c-3.8 0-6.84 3.05-6.84 6.82s3.05 6.83 6.82 6.83h13.64c3.77 0 6.82-3.1 6.82-6.9s-3.05-6.9-6.82-6.9h-13.6zm61.43 6.82c0-3.77-3-6.83-6.8-6.83h-13.6c-3.7 0-6.8 3.06-6.8 6.83s3.1 6.83 6.9 6.83h13.67c3.8 0 6.85-3.1 6.85-6.9m96.07 24.8c-.6-3.8-4.1-6.3-7.8-5.7-3.73.6-6.26 4.1-5.66 7.8.2 1.22.3 2.45.28 3.77 0 2.3-.3 4.57-.94 6.76-1.07 3.6 1 7.4 4.62 8.46.6.16 1.25.25 1.9.25 2.95 0 5.7-1.9 6.54-4.9 1-3.45 1.53-7 1.53-10.55 0-1.97-.14-4-.46-6M283.7 396.3h-13.66c-3.77 0-6.83 3.05-6.83 6.82.1 3.76 3.1 6.8 6.9 6.8h13.7c3.8 0 6.9-3.04 6.9-6.82 0-3.78-3.06-6.84-6.82-6.84m-40.95.02h-13.7c-3.76 0-6.82 3.06-6.82 6.83s3.07 6.8 6.84 6.8h13.6c3.8 0 6.84-3 6.84-6.8s-3.07-6.8-6.84-6.8m75.1-54.6c0-3.7-3.05-6.8-6.8-6.8h-13.6c-3.8 0-6.87 3.1-6.87 6.8 0 3.8 3.05 6.9 6.83 6.9H311c3.78 0 6.84-3 6.84-6.8m-40.96 0c0-3.75-3.06-6.8-6.83-6.8H256.4c-3.78 0-6.83 3.06-6.83 6.83 0 3.76 3.05 6.8 6.82 6.8H270c3.77 0 6.82-3.06 6.82-6.84m47.3 54.6H311c-3.78 0-6.83 3.06-6.83 6.83s3.05 6.8 6.83 6.8h13.45l.2-6.85v6.8c3.78 0 6.6-3.04 6.6-6.8 0-3.8-3.3-6.84-7.08-6.84m24.15-36.02c1.48 0 2.97-.5 4.22-1.5 2.96-2.3 3.47-6.6 1.14-9.54-3.43-4.35-7.86-7.96-12.82-10.42-3.4-1.7-7.48-.3-9.16 3.1-1.68 3.4-.3 7.5 3.07 9.2 3.16 1.57 6 3.87 8.18 6.65 1.35 1.74 3.35 2.6 5.37 2.6m26.04-88.66c-2.93 1.2-6.03 1.84-9.23 1.84h-1.47c-3.77 0-6.83 3.04-6.83 6.8 0 3.8 3.06 6.84 6.83 6.84h1.47c5.03 0 9.9-.96 14.5-2.9 3.5-1.46 5.12-5.46 3.66-8.93-1.5-3.5-5.5-5.15-9-3.68m-186.5-67.4c3.6-1.17 5.5-5.03 4.3-8.6-.8-2.4-1.2-4.9-1.2-7.43 0-1.03.1-2.1.2-3.1.44-3.7-2.2-7.1-5.9-7.6-3.9-.4-7.2 2.2-7.6 5.9-.2 1.6-.3 3.15-.3 4.8 0 4 .6 7.94 1.8 11.7.95 2.86 3.62 4.7 6.5 4.7.7 0 1.42-.1 2.12-.36m-27.03 192h-13.6c-3.77 0-6.8 3.06-6.8 6.83s3.04 6.8 6.8 6.8h13.67c3.77 0 6.82-3.07 6.82-6.85 0-3.72-3.06-6.8-6.83-6.8m68.68-50.5c2.6 0 5.06-1.48 6.2-4 1.58-3.45.08-7.5-3.35-9.07-3.2-1.46-6.1-3.67-8.4-6.4-2.4-2.87-6.7-3.25-9.6-.82-2.9 2.46-3.2 6.76-.8 9.65 3.6 4.28 8.1 7.75 13.2 10.05.9.4 1.9.6 2.8.6M383.9 217c-4.84-2.83-10.2-4.5-15.8-4.94-3.7-.26-7 2.5-7.3 6.3-.3 3.75 2.5 7.03 6.27 7.33 3.53.2 6.9 1.3 10 3.1 1.05.6 2.23.9 3.4.9 2.34 0 4.64-1.2 5.9-3.4 1.9-3.3.8-7.5-2.48-9.4M201.8 396.2h-13.7c-3.78 0-6.83 3.06-6.83 6.83s3.1 6.8 6.9 6.8h13.7c3.76 0 6.8-3.06 6.8-6.84s-3.05-6.85-6.8-6.85m17-89.82c.67-3.5 2.1-6.74 4.22-9.64 2.25-3 1.6-7.3-1.44-9.53-3.02-2.22-7.3-1.58-9.53 1.45-3.32 4.55-5.56 9.65-6.62 15.18-.7 3.7 1.7 7.3 5.4 8 .46.1.9.1 1.3.1 3.2 0 6.08-2.2 6.7-5.5" clip-path="url(#d)"/>
  <path d="M331 102.72c20.7 0 37.54-16.85 37.54-37.55 0-20.7-16.85-37.54-37.54-37.54-20.7 0-37.55 16.85-37.55 37.54 0 20.7 16.85 37.55 37.55 37.55m0-61.44c13.17 0 23.9 10.72 23.9 23.9 0 13.17-10.73 23.9-23.9 23.9-13.18 0-23.9-10.73-23.9-23.9 0-13.18 10.73-23.9 23.9-23.9M81.82 211.94c-22.6 0-40.96 18.38-40.96 40.96 0 22.6 18.37 40.97 40.96 40.97s40.97-18.37 40.97-40.97c-.1-22.58-18.4-40.96-41-40.96m0 68.27c-15.1 0-27.3-12.2-27.3-27.3 0-15 12.2-27.3 27.3-27.3 15 0 27.3 12.3 27.3 27.3 0 15.1-12.3 27.3-27.3 27.3" clip-path="url(#d)"/>
</svg>
