<svg xmlns="http://www.w3.org/2000/svg" width="268.53" height="285.38" xmlns:xlink="http://www.w3.org/1999/xlink">
  <defs>
    <path id="a" d="M0 0h268.53v285.38H0z"/>
  </defs>
  <clipPath id="b">
    <use xlink:href="#a" overflow="visible"/>
  </clipPath>
  <path d="M237.55 0H30.98C13.9 0 0 13.9 0 30.98v223.4c0 17.1 13.9 31 30.98 31h206.57c17.08 0 30.98-13.9 30.98-31V31c0-17.1-13.9-31-30.98-31m-44.83 113.03H75.82V15.5h116.9v97.53zM98.76 195h71v74.9h-71V195zm154.28 59.4c0 8.54-6.95 15.5-15.5 15.5h-52.28v-82.63c0-4.3-3.46-7.75-7.74-7.75h-86.5c-4.28 0-7.75 3.46-7.75 7.74v82.63h-52.3c-8.53 0-15.48-7-15.48-15.5V30.93c0-8.54 6.9-15.5 15.44-15.5H60.3v105.3c0 4.27 3.48 7.74 7.76 7.74h132.4c4.28 0 7.74-3.47 7.74-7.75V15.5h29.35c8.54 0 15.5 6.94 15.5 15.48v223.4z" clip-path="url(#b)"/>
  <path d="M93.2 99.12h82.12c4.28 0 7.75-3.48 7.75-7.75 0-4.28-3.47-7.74-7.75-7.74h-82.1c-4.3 0-7.76 3.46-7.76 7.74 0 4.27 3.47 7.75 7.75 7.75m0-27.12h82.15c4.28 0 7.75-3.47 7.75-7.74 0-4.28-3.48-7.75-7.76-7.75h-82.1c-4.3.06-7.76 3.5-7.76 7.8s3.47 7.75 7.75 7.75m0-27.12h82.12c4.28 0 7.75-3.46 7.75-7.74s-3.48-7.76-7.76-7.76h-82.1c-4.3 0-7.76 3.48-7.76 7.76 0 4.27 3.47 7.73 7.75 7.73m61.4 157.85c-4.28 0-7.75 3.48-7.75 7.75v21.95c0 4.28 3.47 7.74 7.75 7.74 4.28 0 7.75-3.5 7.75-7.77V210.5c0-4.27-3.47-7.75-7.75-7.75" clip-path="url(#b)"/>
</svg>
