<svg xmlns="http://www.w3.org/2000/svg" width="409.92" height="410.88" xmlns:xlink="http://www.w3.org/1999/xlink">
  <defs>
    <path id="a" d="M0 0h409.92v410.88H0z"/>
  </defs>
  <clipPath id="b">
    <use xlink:href="#a" overflow="visible"/>
  </clipPath>
  <path d="M88.75 164.16H34.13c-3.77 0-6.82 3.06-6.82 6.83v27.3c0 3.7 3.1 6.8 6.9 6.8h54.6c3.8 0 6.8-3.1 6.8-6.9V171c0-3.78-3-6.84-6.8-6.84m-34.1 27.3H41V177.8h13.6v13.68zm27.3 0H68.3V177.8h13.65v13.68zm6.8 27.3H34.2c-3.8 0-6.84 3.07-6.84 6.84v27.3c0 3.78 3.07 6.83 6.84 6.83h54.6c3.76 0 6.8-3.06 6.8-6.82v-27.3c0-3.7-3.04-6.8-6.8-6.8m-34.15 27.3H40.97v-13.6H54.6v13.7zm27.32 0h-13.7v-13.6h13.66v13.7zm6.8 27.3h-54.6c-3.78 0-6.83 3.1-6.83 6.9v27.3c0 3.8 3.07 6.9 6.84 6.9H88.8c3.76 0 6.8-3 6.8-6.8v-27.3c0-3.8-3.04-6.8-6.8-6.8m-34.2 27.3H40.97v-13.7H54.6v13.68zm27.32 0H68.27v-13.7h13.65v13.68zM334.5 164.2h-54.6c-3.78 0-6.83 3.06-6.83 6.83v27.3c0 3.74 3.05 6.8 6.83 6.8h54.6c3.78 0 6.83-3.06 6.83-6.83V171c0-3.78-3.05-6.84-6.82-6.84m-34.1 27.3h-13.6V177.8h13.7v13.68zm27.3 0h-13.6V177.8h13.7v13.68zm6.8-81.9h-54.6c-3.7 0-6.8 3.04-6.8 6.82v27.3c0 3.77 3.1 6.83 6.9 6.83h54.6c3.8 0 6.9-3 6.9-6.8v-27.3c0-3.7-3-6.8-6.8-6.8m-34.1 27.3h-13.7v-13.7h13.7v13.7zm27.3 0h-13.7v-13.7h13.7v13.7zm-157 54.6h-27.3c-3.8 0-6.8 3.1-6.8 6.9v27.3c0 3.8 3.07 6.8 6.8 6.8h27.3c3.8 0 6.87-3 6.87-6.8v-27.3c0-3.8-3.05-6.8-6.82-6.8m-6.8 27.3h-13.7v-13.7H164v13.7zm61.46-27.3H198c-3.8 0-6.84 3.1-6.84 6.9v27.3c0 3.78 3.05 6.8 6.82 6.8h27.3c3.78 0 6.83-3.02 6.83-6.8v-27.3c0-3.8-3-6.82-6.8-6.82m-6.8 27.3h-13.7v-13.7h13.7v13.67zM170.7 137h-27.3c-3.8 0-6.8 3.05-6.8 6.82V171c0 3.76 3.1 6.82 6.8 6.82h27.3c3.8 0 6.9-3.04 6.9-6.8v-27.3c0-3.78-3.03-6.84-6.8-6.84m-6.82 27.3h-13.7v-13.64h13.65v13.66zm61.46-27.3H198c-3.8 0-6.84 3.05-6.84 6.82V171c0 3.77 3.05 6.83 6.82 6.83h27.3c3.78 0 6.83-3.02 6.83-6.8v-27.3c0-3.76-3-6.82-6.8-6.82m-6.8 27.3h-13.7v-13.6h13.7v13.7zm-47.8-81.9h-27.3c-3.8 0-6.8 3.1-6.8 6.9v27.3c0 3.8 3.1 6.8 6.8 6.8h27.3c3.8 0 6.9-3 6.9-6.8V89.1c0-3.77-3-6.83-6.8-6.83m-6.8 27.3h-13.7V95.9H164v13.65zm61.5-27.3H198c-3.8 0-6.84 3.06-6.84 6.83v27.3c0 3.77 3.05 6.83 6.82 6.83h27.3c3.78 0 6.83-3.05 6.83-6.82V89.1c0-3.76-3-6.82-6.8-6.82m-6.8 27.3h-13.7V95.9h13.7v13.65zM170.7 273.4h-27.3c-3.78 0-6.83 3.05-6.83 6.82v27.3c0 3.77 3.05 6.83 6.82 6.83h27.3c3.7 0 6.8-3.06 6.8-6.83v-27.3c0-3.78-3.1-6.83-6.9-6.83m-6.8 27.3h-13.6V287h13.6v13.65zM27.3 328h13.66v13.65H27.3zm27.3 0h13.66v13.65H54.6z" clip-path="url(#b)"/>
  <defs>
    <path id="c" d="M0 0h409.92v410.88H0z"/>
  </defs>
  <clipPath id="d">
    <use xlink:href="#c" overflow="visible"/>
  </clipPath>
  <path d="M81.92 328h13.65v13.65H81.92z" clip-path="url(#d)"/>
  <path d="M402.77 246.08h-34.13V89.06c0-3.76-3.05-6.82-6.83-6.82h-47.7V71.4l7.2-7.16c6 4.44 13.1 6.78 20.2 6.78 8.7 0 17.4-3.3 24-9.9l1.4-1.37c2.68-2.66 2.68-6.98 0-9.65L351 34.45l15.65-15.65L357 9.15 341.32 24.8 318.85 2.32c-1.27-1.28-3-2-4.82-2-2.74 0-4.4 1.5-5.5 2.5C301.8 9 298 17.5 297.8 26.7c-.2 9.22 3.42 18.25 9.94 24.77l3.46 3.46-8.82 8.83c-1.3 1.28-2 3.02-2 4.83v13.6H259.4V61.7c0-3.77-3.04-6.83-6.8-6.83h-23.9L189.77 3.05c-2.57-3.44-8.35-3.44-10.92 0l-38.92 51.88h-23.9c-3.76 0-6.8 3.06-6.8 6.83v75.1H68.26V82.23H54.6v54.62H6.84c-3.78 0-6.83 3.05-6.83 6.82v259.4c0 3.78 3.1 6.84 6.9 6.84h368.6c18.9 0 34.2-15.3 34.2-34.1V252.9c0-3.76-3-6.82-6.8-6.82M109.3 396.26H13.7V150.5h95.6v245.76zM314.37 17.1l37.4 37.4c-7.8 4.67-18 3.65-24.7-3.02l-9.67-9.66c-3.93-3.97-6.05-9.23-5.93-14.83.08-3.6 1.04-6.9 2.9-9.9M184.3 18.5l27.3 36.4H157l27.3-36.4zM157 341.65v54.6h-34.14V68.6h122.88v143.34h13.65V95.9H355v150.18h-13.67v-6.83c0-11.3-9.2-20.48-20.48-20.48H279.9c-11.3 0-20.5 9.2-20.5 20.48v6.83h-61.43c-3.77 0-6.82 3.06-6.82 6.82V328h-54.62v13.65H157zm170.66-102.4v6.83h-54.6v-6.83c0-3.76 3.05-6.83 6.82-6.83h40.95c3.77 0 6.83 3.07 6.83 6.83m-157 157v-54.6h20.47v34.14c0 7.7 2.67 14.7 7 20.4h-27.48zm225.26-20.46c0 11.2-9.18 20.4-20.48 20.4H225.28c-11.3 0-20.48-9.2-20.48-20.5v-68.4c5.72 4.3 12.77 7 20.48 7h6.83v20.5c0 3.7 3.1 6.8 6.9 6.8h27.3c3.8 0 6.9-3.1 6.9-6.8v-20.5h54.6v20.5c0 3.7 3.1 6.8 6.9 6.8H362c3.8 0 6.83-3.1 6.83-6.8v-20.5h6.83c7.7 0 14.75-2.7 20.46-7v68.4zm-150.18-61.5h13.65V328h-13.7v-13.65zM286.7 287H314v13.64h-27.3V287zm54.6 27.3H355V328h-13.67v-13.65zm54.63-34.14c0 11.3-9.2 20.5-20.48 20.5h-47.8v-20.5c0-3.77-3.04-6.8-6.82-6.8H279.9c-3.78 0-6.83 3.03-6.83 6.8v20.5h-47.8c-11.28 0-20.47-9.2-20.47-20.5V259.7h191.15v20.48z" clip-path="url(#d)"/>
  <defs>
    <path id="e" d="M0 0h409.92v410.88H0z"/>
  </defs>
  <clipPath id="f">
    <use xlink:href="#e" overflow="visible"/>
  </clipPath>
  <path d="M368.64 368.96h13.65v13.65h-13.7zm-27.3 0H355v13.65h-13.67zm-27.3 0h13.64v13.65h-13.65z" clip-path="url(#f)"/>
</svg>
