<svg xmlns="http://www.w3.org/2000/svg" width="237.78" height="222.21" xmlns:xlink="http://www.w3.org/1999/xlink">
  <defs>
    <path id="a" d="M0 0h237.78v222.2H0z"/>
  </defs>
  <clipPath id="b">
    <use xlink:href="#a" overflow="visible"/>
  </clipPath>
  <path d="M119.53 41.03c11.3 0 20.52-9.2 20.52-20.52 0-11.3-9.2-20.5-20.52-20.5-11.3 0-20.5 9.2-20.5 20.5 0 11.4 9.2 20.6 20.5 20.6M87.05 104h64.68c4.2 0 7.62-3.4 7.62-7.6V68.2c0-7.8-5-14.75-12.43-17.18h-.04l-10.85-1.8c-.92-.3-1.9.2-2.24 1.1l-12.4 33.8c-.7 1.93-3.5 1.93-4.2 0L105 50.28c-.28-.75-.97-1.2-1.72-1.2-.17 0-.35.02-.53.1l-10.85 1.8c-7.48 2.46-12.48 9.4-12.48 17.23v28.1c0 4.3 3.42 7.7 7.63 7.7m-46.9 55.38c11.3 0 20.5-9.2 20.5-20.5 0-11.32-9.2-20.53-20.5-20.53s-20.5 9.2-20.5 20.5 9.2 20.5 20.5 20.5m27.35 9.96h-.04l-10.85-1.8c-.9-.3-1.9.2-2.2 1.1l-12.3 33.8c-.7 1.94-3.5 1.94-4.2 0l-12.3-33.8c-.2-.73-.9-1.2-1.7-1.2-.2 0-.3.04-.5.1l-10.8 1.8C5 171.7 0 178.6 0 186.46v28.1c0 4.22 3.4 7.64 7.63 7.64H72.3c4.22 0 7.63-3.4 7.63-7.64v-28.2c0-7.8-5.02-14.73-12.43-17.16m130.32-9.93c11.3 0 20.52-9.2 20.52-20.5 0-11.32-9.2-20.53-20.52-20.53-11.3 0-20.5 9.2-20.5 20.52 0 11.3 9.2 20.5 20.5 20.5m27.53 9.95h-.04l-10.8-1.8c-.9-.3-1.9.2-2.2 1.1L200 202.3c-.7 1.95-3.43 1.95-4.2 0l-12.3-33.8c-.22-.72-.92-1.2-1.7-1.2-.2 0-.32.05-.5.1l-10.85 1.8c-7.5 2.5-12.47 9.4-12.47 17.26v28.1c0 4.22 3.4 7.64 7.63 7.64h64.67c4.2 0 7.6-3.4 7.6-7.6v-28.2c0-7.8-5-14.7-12.4-17.1m-99.07-59.5h-13.6v30.87l-31.9 31.8c2.88 3.96 4.54 8.8 4.54 13.96v.65l34.1-34.1 32.77 32.8c.2-5.23 2.1-10.1 5.2-14.02l-31.1-31.1V109.8z" clip-path="url(#b)"/>
  <path d="M124.43 49.05c-.53-.58-1.3-.87-2.1-.87h-5.88c-.8 0-1.57.3-2.1.88-.83.9-.95 2.2-.36 3.2l3.1 4.74-1.5 12.44 2.9 7.7c.3.78 1.4.78 1.6 0l2.9-7.7L121.6 57l3.15-4.73c.53-1.02.4-2.32-.4-3.22M45 167.33c-.53-.58-1.3-.87-2.1-.87h-5.88c-.8 0-1.56.3-2.1.87-.82.9-.94 2.2-.36 3.22l3.15 4.74-1.4 12.4 2.9 7.7c.3.8 1.4.8 1.7 0l2.9-7.7-1.45-12.4 3.14-4.8c.6-1 .46-2.3-.36-3.2m157.86 0c-.53-.6-1.3-.9-2.1-.9H195c-.8 0-1.58.3-2.1.82-.84.9-.96 2.2-.37 3.22l3.16 4.73-1.5 12.4 2.9 7.7c.26.8 1.36.8 1.64 0l2.9-7.7-1.5-12.4 3.16-4.76c.6-1 .48-2.3-.35-3.2" clip-path="url(#b)"/>
</svg>
