<svg xmlns="http://www.w3.org/2000/svg" width="512" height="494.89" xmlns:xlink="http://www.w3.org/1999/xlink">
  <defs>
    <path id="a" d="M0 0h512v494.9H0z"/>
  </defs>
  <clipPath id="b">
    <use xlink:href="#a" overflow="visible"/>
  </clipPath>
  <path d="M344.6 83.35c-27.06-27.1-63.04-42-101.32-42-38.28 0-74.27 14.9-101.33 42-55.86 55.93-55.86 146.92 0 202.84 27.07 27.1 63.05 42 101.33 42s74.26-14.9 101.32-42c55.87-56 55.87-147 0-202.9m-12.25 190.6c-23.8 23.8-55.43 36.9-89.07 36.9-33.65 0-65.28-13.2-89.08-37-49.12-49.2-49.12-129.2 0-178.4 23.8-23.8 55.43-37 89.08-37 33.64 0 65.28 13.1 89.07 36.9 49.13 49.2 49.13 129.2 0 178.36" clip-path="url(#b)"/>
  <path d="M243.28 79.3c-28.15 0-54.6 10.98-74.5 30.9-3.4 3.38-3.4 8.86 0 12.24 3.37 3.38 8.86 3.38 12.24 0 16.63-16.65 38.74-25.82 62.26-25.82 23.52 0 45.63 9.17 62.26 25.8 1.7 1.7 3.9 2.55 6.12 2.55s4.43-.84 6.12-2.53c3.4-3.38 3.4-8.86 0-12.24-19.9-19.93-46.35-30.9-74.5-30.9M190.2 426.66H8.65c-4.78 0-8.66 3.87-8.66 8.66v50.9c0 4.8 3.8 8.67 8.6 8.67h37.6c4.8 0 8.6-3.9 8.6-8.7s-3.9-8.7-8.7-8.7H17.3v-33.6h164.23v33.6H102.3c-4.77 0-8.65 3.8-8.65 8.6s3.88 8.6 8.66 8.6h87.9c4.8 0 8.6-3.9 8.6-8.7v-50.9c0-4.8-3.8-8.7-8.6-8.7" clip-path="url(#b)"/>
  <path d="M509.46 393.63l-74-74.02c-3.4-3.3-8.87-3.3-12.25 0l-4.2 4.3-26.7-26.7c43.5-58.2 49.5-138.1 13-202.6-2.3-4.1-7.6-5.6-11.8-3.2-4.1 2.4-5.6 7.7-3.2 11.8 34.7 61.4 27 138.1-17.8 191.4l-.4.6c-.6.7-1.1 1.4-1.7 2.07l-.8.9-1.6 1.8-1.1 1.2-1.5 1.6-1.2 1.2-1.4 1.46c-2 2.06-4.1 4.05-6.3 5.97l-.3.3c-32 28.7-72.4 43.05-112.8 43.05-43.2 0-86.5-16.43-119.4-49.3-32-32-49.6-74.3-49.6-119.4S92 98.6 123.8 66.73C189.6.9 296.7.9 362.6 66.66c3.36 3.4 8.84 3.4 12.2 0 3.3-3.4 3.3-8.88 0-12.26-72.6-72.5-190.7-72.5-263.3 0C76.3 89.6 57 136.3 57 185.9c0 23.68 4.4 46.67 12.8 68.05H8.64c-4.77 0-8.65 3.88-8.65 8.66v51c0 4.8 3.8 8.7 8.6 8.7h107.8c6.6 6.2 13.6 11.8 20.9 16.8H8.6c-4.8 0-8.67 3.8-8.67 8.6v50.9c0 4.8 3.87 8.7 8.65 8.7h310.7c4.8 0 8.67-3.8 8.67-8.6v-47.2c9.23-4.7 18.15-10.2 26.65-16.6l26.7 26.7-4.23 4.2c-1.64 1.6-2.55 3.9-2.55 6.1 0 2.3 1 4.5 2.6 6.2l74 74c1.64 1.65 3.84 2.56 6.14 2.56s4.5-.9 6.1-2.56l46.1-46.07c3.4-3.4 3.4-8.86 0-12.24M17.3 271.24h60.3c6.17 11.9 13.65 23.14 22.4 33.6H17.3v-33.6zM310.7 389.9H17.3v-33.6H164c1.1 0 2.16-.22 3.14-.6 24.1 10.73 50.03 16.1 75.97 16.1 23 0 46-4.2 67.6-12.6v30.7zm57.4-66.15l2.6-2.43.63-.6c1.15-1.08 2.3-2.18 3.4-3.3.45-.44.88-.9 1.32-1.34l1.6-1.63 1.54-1.65c.5-.47.9-.95 1.3-1.43.2-.26.5-.5.7-.77l25.5 25.5-13.2 13.14-25.5-25.5zm89.17 109.85l-61.8-61.78 4.2-4.2v-.02l25.4-25.38v-.03l4.2-4.2 61.76 61.7-33.83 33.8z" clip-path="url(#b)"/>
</svg>
