<svg xmlns="http://www.w3.org/2000/svg" width="506.15" height="431.1" xmlns:xlink="http://www.w3.org/1999/xlink">
  <defs>
    <path id="a" d="M0 0h506.15v431.1H0z"/>
  </defs>
  <clipPath id="b">
    <use xlink:href="#a" overflow="visible"/>
  </clipPath>
  <path d="M390.1 382.3H198.95c-3.77 0-6.82 3.05-6.82 6.82v13.65c0 3.77 3.05 6.83 6.82 6.83 3.77 0 6.83-3.06 6.83-6.83v-6.83H390.1c3.76 0 6.82-3.05 6.82-6.82s-3.05-6.83-6.82-6.83M246.74 170.6c0 3.76 3.06 6.82 6.82 6.82h27.3c3.78 0 6.84-3.08 6.84-6.84v-40.9c0-3.76-3.06-6.82-6.83-6.82h-27.3c-3.77 0-6.83 3.06-6.83 6.83v41zm13.65-34.13H274v27.3h-13.6v-27.3zm-75.1-54.6h-82c-3.8 0-6.9 3.06-6.9 6.83v136.53c0 3.77 3 6.83 6.8 6.83s6.8-3.05 6.8-6.8V95.56h75.1c3.7 0 6.8-3.06 6.8-6.83s-3.1-6.83-6.8-6.83M424 334.5c0 3.8 3.08 6.86 6.85 6.86h27.3c3.76 0 6.82-3.06 6.82-6.82V293.6c0-3.78-3.1-6.84-6.87-6.84H431c-3.77 0-6.83 3.06-6.83 6.83v40.9zm13.67-34.1h13.7v27.3h-13.6v-27.3zm-266.2-95.6h-27.3c-3.76 0-6.8 3.08-6.8 6.84v13.66c0 3.76 3.1 6.82 6.86 6.82s6.82-3 6.82-6.8v-6.8h13.62v34.13c0 3.77 3.1 6.8 6.86 6.8 3.75 0 6.8-3.03 6.8-6.8V211.7c0-3.78-3.07-6.84-6.83-6.84m259.4-27.3h27.3c3.8 0 6.85-3.06 6.85-6.82v-41c0-3.76-3.1-6.82-6.86-6.82H431c-3.78 0-6.84 3.06-6.84 6.83v41c0 3.76 3.07 6.8 6.84 6.8m6.82-40.95h13.66v27.3h-13.66v-27.3z" clip-path="url(#b)"/>
  <path d="M171.64 122.88h-27.3c-3.77 0-6.83 3.06-6.83 6.83v41c0 3.8 3.1 6.8 6.9 6.8h27.3c3.8 0 6.9-3 6.9-6.8v-41c0-3.7-3-6.8-6.8-6.8m-6.8 41h-13.7v-27.3H165v27.3zm150.2 6.8c0 3.8 3.1 6.9 6.88 6.9h27.3c3.8 0 6.85-3.1 6.85-6.8v-41c0-3.7-3.05-6.8-6.82-6.8H322c-3.78 0-6.84 3.1-6.84 6.8v41zm13.7-34.1h13.67v27.3h-13.6v-27.3zM499.4 82h-82c-3.76 0-6.82 3.06-6.82 6.83s3.06 6.8 6.82 6.8h75.1v274.3c-2.15-.76-4.42-1.25-6.83-1.25-1.18 0-2.35.1-3.5.3-4.72-8.48-13.68-13.95-23.8-13.95-10.13 0-19.1 5.4-23.8 13.9-1.16-.2-2.33-.3-3.5-.3-11.3 0-20.5 9.2-20.5 20.42 0 11.3 9.2 20.5 20.5 20.5h54.6c11.3 0 20.48-9.2 20.48-20.5V88.72c0-3.74-3.06-6.8-6.83-6.8m-13.65 314.03h-54.6c-3.77 0-6.84-3.07-6.84-6.83 0-3.76 3.07-6.83 6.83-6.83 1.3 0 2.55.3 3.7 1.1 1.87 1.2 4.2 1.4 6.26.6 2.07-.9 3.6-2.7 4.1-4.8 1.43-6.2 6.88-10.6 13.24-10.6 6.37 0 11.82 4.3 13.26 10.5.5 2.1 2.03 3.9 4.08 4.8 2.06.8 4.4.6 6.27-.6 4.45-2.9 10.53.6 10.53 5.7 0 3.7-3.07 6.8-6.83 6.8M321.83 95.5h27.3c3.78 0 6.84-3 6.84-6.8V47.8c0-3.78-3.06-6.84-6.83-6.84h-27.3c-3.78 0-6.84 3.06-6.84 6.83v40.9c0 3.7 3.06 6.8 6.83 6.8m6.83-41h13.65v27.3h-13.6V54.6zM315 252.6c0 3.76 3.06 6.8 6.83 6.8h27.3c3.78 0 6.84-3.04 6.84-6.8v-41c0-3.76-3.06-6.82-6.83-6.82h-27.3c-3.78 0-6.84 3.06-6.84 6.82v40.97zm13.66-34.15h13.65v27.3h-13.6v-27.3zm-75.1-122.88h27.3c3.78 0 6.84-3.05 6.84-6.82V47.8c0-3.78-3.06-6.84-6.83-6.84h-27.3c-3.77 0-6.83 3.06-6.83 6.83v40.9c0 3.7 3.06 6.8 6.82 6.8m6.83-41H274v27.3h-13.6V54.6zm36.1 275c-1.3 1.3-2 3-2 4.8 0 1.8.7 3.5 2 4.8 1.3 1.2 3 1.96 4.8 1.96 1.8 0 3.5-.74 4.8-1.96 1.2-1.3 1.9-3.1 1.9-4.85 0-1.8-.8-3.6-2-4.9-2.6-2.52-7.1-2.52-9.7 0m-49.8-77.07c0 3.75 3 6.8 6.8 6.8h27.3c3.8 0 6.8-3.05 6.8-6.8v-41c0-3.77-3.07-6.83-6.8-6.83h-27.3c-3.8 0-6.87 3.1-6.87 6.85v40.97zm13.6-34.16H274v27.3h-13.6v-27.3z" clip-path="url(#b)"/>
  <path d="M233.1 293.55c0 3.76 3.05 6.82 6.8 6.82h20.5v61.44c0 3.8 3.05 6.9 6.82 6.9 3.76 0 6.82-3 6.82-6.8v-61.5h54.62v61.5c0 3.8 3.05 6.9 6.82 6.9 3.77 0 6.83-3 6.83-6.8v-61.5h20.5c3.8 0 6.9-3 6.9-6.8 0-3.73-3-6.8-6.8-6.8h-123c-3.7 0-6.8 3.07-6.8 6.84m191.2-41c0 3.7 3.1 6.8 6.9 6.8h27.3c3.8 0 6.87-3.1 6.87-6.8v-41c0-3.8-3.1-6.9-6.9-6.9H431c-3.76 0-6.82 3-6.82 6.8v40.93zm13.7-34.2h13.7v27.3H438v-27.3z" clip-path="url(#b)"/>
  <path d="M390.1 0H212.6c-3.77 0-6.82 3.06-6.82 6.83V361.8c0 3.78 3.05 6.84 6.82 6.84 3.77 0 6.83-3.06 6.83-6.83V13.7h163.84v348.1c0 3.78 3.06 6.84 6.83 6.84 3.76 0 6.82-3.06 6.82-6.83V6.9c0-3.77-3.05-6.83-6.82-6.83m-249.98 292.3c-2.35-2.35-6.17-2.35-8.52 0L96.55 327.4 61.5 292.35c-2.32-2.36-6.15-2.36-8.5 0-2.35 2.35-2.35 6.17 0 8.53l34.76 34.75L53 370.37c-2.35 2.36-2.35 6.18 0 8.53 1.2 1.18 2.73 1.78 4.28 1.78 1.54 0 3.08-.6 4.26-1.78l35-35 35.02 35c1.18 1.18 2.72 1.78 4.26 1.78 1.55 0 3.1-.6 4.27-1.78 2.3-2.35 2.3-6.17 0-8.53l-34.8-34.72 34.7-34.77c2.3-2.36 2.3-6.18 0-8.53" clip-path="url(#b)"/>
  <path d="M96.55 238C43.32 238 0 281.3 0 334.55c0 53.24 43.32 96.55 96.55 96.55s96.55-43.3 96.55-96.55c0-53.24-43.3-96.55-96.55-96.55m0 181.04c-46.6 0-84.48-37.9-84.48-84.48 0-46.6 37.9-84.5 84.48-84.5 46.6 0 84.48 37.9 84.48 84.5 0 46.58-37.9 84.48-84.48 84.48" clip-path="url(#b)"/>
</svg>
